<?xml version="1.0" encoding="UTF-8" standalone="no"?><!DOCTYPE svg PUBLIC "-//W3C//DTD SVG 1.1//EN" "http://www.w3.org/Graphics/SVG/1.1/DTD/svg11.dtd"><svg width="100%" height="100%" viewBox="0 0 30 30" version="1.1" xmlns="http://www.w3.org/2000/svg" xmlns:xlink="http://www.w3.org/1999/xlink" xml:space="preserve" style="fill-rule:evenodd;clip-rule:evenodd;stroke-linejoin:round;stroke-miterlimit:1.41421;"><g><path d="M15,30c4.006,0 7.773,-1.561 10.606,-4.394c2.834,-2.833 4.394,-6.6 4.394,-10.606c0,-4.006 -1.56,-7.773 -4.394,-10.606c-2.833,-2.833 -6.6,-4.394 -10.606,-4.394c-4.007,0 -7.773,1.561 -10.606,4.394c-2.834,2.833 -4.394,6.6 -4.394,10.606c0,4.006 1.56,7.773 4.394,10.606c2.833,2.833 6.599,4.394 10.606,4.394Zm-9.943,-24.943c2.656,-2.656 6.187,-4.119 9.943,-4.119c3.756,0 7.287,1.463 9.943,4.119c2.657,2.656 4.12,6.187 4.12,9.943c0,3.756 -1.463,7.287 -4.12,9.943c-2.656,2.656 -6.187,4.119 -9.943,4.119c-3.756,0 -7.287,-1.463 -9.943,-4.119c-2.657,-2.656 -4.12,-6.187 -4.12,-9.943c0,-3.756 1.463,-7.287 4.12,-9.943Z" style="fill-rule:nonzero;"/><rect x="14.531" y="11.719" width="0.937" height="10.312"/><rect x="14.531" y="7.969" width="0.937" height="1.875"/></g></svg>