<?xml version="1.0" encoding="UTF-8" standalone="no"?><!DOCTYPE svg PUBLIC "-//W3C//DTD SVG 1.1//EN" "http://www.w3.org/Graphics/SVG/1.1/DTD/svg11.dtd"><svg width="100%" height="100%" viewBox="0 0 30 30" version="1.1" xmlns="http://www.w3.org/2000/svg" xmlns:xlink="http://www.w3.org/1999/xlink" xml:space="preserve" style="fill-rule:evenodd;clip-rule:evenodd;stroke-linejoin:round;stroke-miterlimit:1.41421;"><g><path d="M15,30c4.006,0 7.773,-1.561 10.606,-4.394c2.834,-2.833 4.394,-6.6 4.394,-10.606c0,-4.006 -1.56,-7.773 -4.394,-10.606c-2.833,-2.833 -6.6,-4.394 -10.606,-4.394c-4.007,0 -7.773,1.561 -10.606,4.394c-2.834,2.833 -4.394,6.6 -4.394,10.606c0,4.006 1.56,7.773 4.394,10.606c2.833,2.833 6.599,4.394 10.606,4.394Zm-9.943,-24.943c2.656,-2.656 6.187,-4.119 9.943,-4.119c3.756,0 7.287,1.463 9.943,4.119c2.657,2.656 4.12,6.187 4.12,9.943c0,3.756 -1.463,7.287 -4.12,9.943c-2.656,2.656 -6.187,4.119 -9.943,4.119c-3.756,0 -7.287,-1.463 -9.943,-4.119c-2.657,-2.656 -4.12,-6.187 -4.12,-9.943c0,-3.756 1.463,-7.287 4.12,-9.943Z" style="fill-rule:nonzero;"/><g><path d="M22.49,21.348l-14.98,0c-0.793,0 -1.44,-0.646 -1.44,-1.44l0,-9.817c0,-0.794 0.647,-1.439 1.44,-1.439l14.98,0c0.793,0 1.44,0.645 1.44,1.439l0,9.817c0,0.794 -0.647,1.44 -1.44,1.44Zm-14.98,-12.121c-0.476,0 -0.864,0.388 -0.864,0.864l0,9.817c0,0.476 0.388,0.864 0.864,0.864l14.98,0c0.476,0 0.864,-0.388 0.864,-0.864l0,-9.817c0,-0.476 -0.388,-0.864 -0.864,-0.864l-14.98,0Z" style="fill-rule:nonzero;stroke:#000;stroke-width:0.27px;"/><path d="M15,16.447c-0.383,0 -0.766,-0.128 -1.057,-0.382l-7.359,-6.413c-0.12,-0.105 -0.133,-0.286 -0.028,-0.406c0.105,-0.121 0.287,-0.133 0.407,-0.028l7.358,6.413c0.369,0.321 0.991,0.32 1.358,0l7.357,-6.413c0.119,-0.105 0.3,-0.093 0.406,0.028c0.105,0.12 0.092,0.302 -0.027,0.406l-7.358,6.413c-0.291,0.254 -0.674,0.382 -1.057,0.382Z" style="fill-rule:nonzero;stroke:#000;stroke-width:0.27px;"/></g></g></svg>